Coordinates
version=1
nRows=8
nColumns=36
inDegrees=yes

Units are S.I. units (second, meters, Newtons, ...)
If the header above contains a line with 'inDegrees', this indicates whether rotational values are in degrees (yes) or radians (no).

endheader
time	pelvis_tilt	pelvis_list	pelvis_rotation	pelvis_tx	pelvis_ty	pelvis_tz	hip_flexion_r	hip_adduction_r	hip_rotation_r	knee_angle_r	knee_angle_r_beta	ankle_angle_r	subtalar_angle_r	mtp_angle_r	hip_flexion_l	hip_adduction_l	hip_rotation_l	knee_angle_l	knee_angle_l_beta	ankle_angle_l	subtalar_angle_l	mtp_angle_l	lumbar_extension	lumbar_bending	lumbar_rotation	arm_flex_r	arm_add_r	arm_rot_r	elbow_flex_r	pro_sup_r	arm_flex_l	arm_add_l	arm_rot_l	elbow_flex_l	pro_sup_l
      1.45416670	     -4.95989397	      0.58319186	      2.54694244	     -0.96173413	      1.24212435	     -0.06161081	     12.37739343	      0.44143711	     -1.93069113	     18.20715639	      0.31777483	      3.78974551	    -17.21302912	     -7.49999987	     10.51250950	      0.98828835	      3.36029734	     15.49254551	      0.27039593	      5.86241119	    -10.31067299	     -7.49999987	     -5.81818691	      1.21068797	     -1.82279043	    -10.43958691	     -6.79742829	     -6.24687313	     93.33349093	     82.62014317	     -9.58512793	    -14.20969721	      7.56344906	     96.70990564	     88.28553574
      1.45833330	     -4.87093983	      0.55734159	      2.58967555	     -0.96129885	      1.24413687	     -0.06204651	     12.16853168	      0.44591803	     -2.06543355	     18.03663845	      0.31479873	      3.59560242	    -17.28847277	     -7.49999987	     10.37459664	      0.95154120	      3.32818398	     15.39955356	      0.26877291	      5.65148542	    -10.36447238	     -7.49999987	     -5.92151131	      1.23487202	     -1.68687894	    -10.37168461	     -6.78614535	     -6.30615150	     93.22793230	     82.27488492	     -9.55853656	    -14.11813450	      7.71964640	     96.66688763	     87.89525555
      1.46250000	     -4.92419658	      0.54542038	      2.62620317	     -0.96048326	      1.24079210	     -0.06320208	     12.17980885	      0.44977754	     -2.02117144	     18.02490394	      0.31459392	      3.22645744	    -17.87407875	     -7.49999987	     10.43097578	      0.96770571	      3.26757962	     15.41003198	      0.26895580	      5.68301626	    -10.43084382	     -7.49999987	     -5.77554559	      1.29993456	     -1.67707438	    -10.42504703	     -6.81358308	     -6.30099352	     93.19824240	     81.54511646	     -9.53859832	    -14.10912458	      7.83149849	     96.74817956	     87.02096537
      1.46666670	     -4.87622784	      0.48761617	      2.62942347	     -0.95968820	      1.24118789	     -0.06371261	     12.09183121	      0.44864597	     -2.31430275	     18.09086960	      0.31574524	      3.69670604	    -17.27323815	     -7.49999987	     10.30945870	      0.92761993	      3.21728625	     15.33117217	      0.26757943	      5.84962445	    -10.24661729	     -7.49999987	     -5.87565908	      1.34557104	     -1.56983249	    -10.62537834	     -6.74234260	     -6.86635096	     93.47773515	     86.01897320	     -9.63586590	    -13.94567876	      7.44832177	     96.89990611	     92.22972351
      1.47083330	     -4.91359074	      0.45661412	      2.58933962	     -0.95981437	      1.23988072	     -0.06364968	     12.10850974	      0.45410308	     -2.33525854	     18.09260623	      0.31577555	      3.63059004	    -17.47842404	     -7.49999987	     10.31024298	      0.93614575	      3.23573540	     15.27269265	      0.26655877	      5.99705976	    -10.23836187	     -7.49999987	     -5.79863085	      1.38319774	     -1.56402131	    -10.60749972	     -6.90243287	     -6.66632075	     93.56410430	     84.57586741	     -9.56709527	    -14.04086170	      7.68748339	     97.03113468	     90.80488055
      1.47500000	     -4.91977205	      0.46148681	      2.53925357	     -0.96017111	      1.24161440	     -0.06385820	     12.11807675	      0.41634625	     -2.44396049	     18.12478576	      0.31633719	      3.72987258	    -17.31652803	     -7.49999987	     10.26142887	      0.96885905	      3.19165051	     15.19416617	      0.26518823	      6.05542493	    -10.16745831	     -7.49999987	     -5.76793364	      1.40296806	     -1.52621797	    -10.58135806	     -6.98508797	     -6.58215002	     93.58463203	     83.99048605	     -9.50257415	    -14.03814827	      7.75046721	     97.05141947	     90.09606728
      1.47916670	     -4.90668544	      0.44728518	      2.49438856	     -0.96076980	      1.24155204	     -0.06326270	     12.12244537	      0.45022576	     -2.28582038	     18.12288169	      0.31630396	      3.56077364	    -17.70082320	     -7.49999987	     10.23215830	      0.97898895	      3.23326884	     15.13866295	      0.26421951	      6.12447917	    -10.29243280	     -7.49999987	     -5.78329986	      1.41703563	     -1.48308705	    -10.51627405	     -7.12798340	     -6.39785956	     93.63713728	     83.05009805	     -9.37963321	    -14.09979724	      7.89695810	     97.11798945	     89.28638573
      1.48333330	     -4.84388891	      0.45787883	      2.46981989	     -0.96058897	      1.24501424	     -0.06439782	     11.98484772	      0.40847095	     -2.38078791	     17.98890712	      0.31396566	      3.59250490	    -17.41626727	     -7.49999987	     10.05788286	      1.01023539	      3.27043630	     14.96831369	      0.26124636	      6.09989273	    -10.16047787	     -7.49999987	     -5.85870250	      1.46704039	     -1.47016750	    -10.36363360	     -7.13140300	     -6.25715594	     93.46614798	     82.53580801	     -9.15829143	    -14.14469391	      7.95199404	     96.84610020	     88.70384671
